<svg xmlns="http://www.w3.org/2000/svg" viewBox="0 0 24 24" width="24" height="24">
  <path fill="#1868db" d="M0 6a6 6 0 0 1 6-6h12a6 6 0 0 1 6 6v12a6 6 0 0 1-6 6H6a6 6 0 0 1-6-6z"/>
  <path fill="#ffffff" d="M 8.4952564,16.007989 H 6.9005066 c -2.4027249,0 -4.1246778,-1.472258 -4.1246778,-3.626466 h 8.5638302 c 0.444033,0 0.73024,0.315652 0.73024,0.762041 v 8.618009 c -2.1400745,0 -3.5758204,-1.733731 -3.5758204,-4.15059 z m 4.2295026,-4.282504 h -1.592394 c -2.4027251,0 -4.1258558,-1.445168 -4.1258558,-3.5993762 h 8.5650078 c 0.442855,0 0.756152,0.2885626 0.756152,0.7349512 v 8.618009 c -2.141252,0 -3.60291,-1.733731 -3.60291,-4.15059 z m 4.256592,-4.2565921 h -1.593572 c -2.402725,0 -4.124678,-1.472258 -4.124678,-3.6264658 h 8.56383 c 0.444033,0 0.73024,0.3156521 0.73024,0.736129 v 8.6180089 c -2.140074,0 -3.57582,-1.733731 -3.57582,-4.1517672 z"/>
</svg>
