<?xml version="1.0" encoding="UTF-8" standalone="no"?>
<svg
   height="100%"
   viewBox="0 0 24 24"
   version="1.1"
   id="svg2"
   sodipodi:docname="jira-novo.svg"
   inkscape:export-filename="../c9cc108e/1.png"
   inkscape:export-xdpi="388"
   inkscape:export-ydpi="388"
   inkscape:version="1.4.2 (2aeb623e1d, 2025-05-12)"
   xmlns:inkscape="http://www.inkscape.org/namespaces/inkscape"
   xmlns:sodipodi="http://sodipodi.sourceforge.net/DTD/sodipodi-0.dtd"
   xmlns="http://www.w3.org/2000/svg"
   xmlns:svg="http://www.w3.org/2000/svg">
  <defs
     id="defs2" />
  <sodipodi:namedview
     id="namedview2"
     pagecolor="#ffffff"
     bordercolor="#000000"
     borderopacity="0.25"
     inkscape:showpageshadow="2"
     inkscape:pageopacity="0.0"
     inkscape:pagecheckerboard="0"
     inkscape:deskcolor="#d1d1d1"
     inkscape:zoom="33.458333"
     inkscape:cx="20.069738"
     inkscape:cy="15.556663"
     inkscape:window-width="2560"
     inkscape:window-height="1011"
     inkscape:window-x="1920"
     inkscape:window-y="32"
     inkscape:window-maximized="1"
     inkscape:current-layer="svg2" />
  <path
     fill="var(--tile-color,#1868db)"
     d="M0 6a6 6 0 0 1 6-6h12a6 6 0 0 1 6 6v12a6 6 0 0 1-6 6H6a6 6 0 0 1-6-6z"
     id="path1"
     style="fill:#1868db;fill-opacity:1"
     inkscape:label="form" />
  <path
     fill="var(--icon-color, white)"
     d="M 8.4952564,16.007989 H 6.9005066 c -2.4027249,0 -4.1246778,-1.472258 -4.1246778,-3.626466 h 8.5638302 c 0.444033,0 0.73024,0.315652 0.73024,0.762041 v 8.618009 c -2.1400745,0 -3.5758204,-1.733731 -3.5758204,-4.15059 z m 4.2295026,-4.282504 h -1.592394 c -2.4027251,0 -4.1258558,-1.445168 -4.1258558,-3.5993762 h 8.5650078 c 0.442855,0 0.756152,0.2885626 0.756152,0.7349512 v 8.618009 c -2.141252,0 -3.60291,-1.733731 -3.60291,-4.15059 z m 4.256592,-4.2565921 h -1.593572 c -2.402725,0 -4.124678,-1.472258 -4.124678,-3.6264658 h 8.56383 c 0.444033,0 0.73024,0.3156521 0.73024,0.736129 v 8.6180089 c -2.140074,0 -3.57582,-1.733731 -3.57582,-4.1517672 z"
     id="path2"
     style="fill:#ffffff;stroke-width:1.17781"
     inkscape:label="logo" />
</svg>
