<?xml version="1.0" encoding="UTF-8" standalone="no"?>
<svg
   fill="none"
   height="25"
   viewBox="0 0 25 25"
   focusable="false"
   aria-hidden="true"
   version="1.1"
   id="svg1"
   sodipodi:docname="jira.svg"
   width="25"
   inkscape:export-filename="../fee98409/3.png"
   inkscape:export-xdpi="371.98785"
   inkscape:export-ydpi="371.98785"
   inkscape:version="1.4.2 (2aeb623e1d, 2025-05-12)"
   xml:space="preserve"
   xmlns:inkscape="http://www.inkscape.org/namespaces/inkscape"
   xmlns:sodipodi="http://sodipodi.sourceforge.net/DTD/sodipodi-0.dtd"
   xmlns="http://www.w3.org/2000/svg"
   xmlns:svg="http://www.w3.org/2000/svg"><defs
     id="defs1" /><sodipodi:namedview
     id="namedview1"
     pagecolor="#808080"
     bordercolor="#000000"
     borderopacity="0.25"
     inkscape:showpageshadow="2"
     inkscape:pageopacity="0.0"
     inkscape:pagecheckerboard="0"
     inkscape:deskcolor="#d1d1d1"
     inkscape:zoom="25.09375"
     inkscape:cx="19.905355"
     inkscape:cy="13.648817"
     inkscape:window-width="2560"
     inkscape:window-height="1011"
     inkscape:window-x="1920"
     inkscape:window-y="32"
     inkscape:window-maximized="1"
     inkscape:current-layer="svg1" /><path
     fill="#1868db"
     d="m 8.0795,16.966 h -2.219 c -3.347,0 -5.748,-2.05 -5.748,-5.052 h 11.933 c 0.618,0 1.018,0.44 1.018,1.062 v 12.007 c -2.983,0 -4.984,-2.416 -4.984,-5.784 z m 5.894,-5.967 h -2.22 c -3.346,0 -5.747,-2.0129997 -5.747,-5.015 h 11.932 c 0.618,0 1.055,0.402 1.055,1.025 v 12.007 c -2.983,0 -5.02,-2.416 -5.02,-5.784 z m 5.93,-5.93 h -2.22 c -3.347,0 -5.748,-2.05 -5.748,-5.052 h 11.933 c 0.618,0 1.019,0.439 1.019,1.025 v 12.007 c -2.983,0 -4.984,-2.416 -4.984,-5.7839997 z"
     id="path1"
     style="stroke:none;stroke-opacity:1"
     inkscape:label="logo" /><text
     xml:space="preserve"
     style="font-style:normal;font-variant:normal;font-weight:900;font-stretch:normal;font-size:13.3333px;font-family:Roboto;-inkscape-font-specification:'Roboto Heavy';text-align:end;letter-spacing:0px;writing-mode:lr-tb;direction:ltr;text-anchor:end;display:inline;fill:#ffffff;stroke:#ffffff;stroke-width:0.3;stroke-linecap:round;stroke-linejoin:round;stroke-dasharray:none;stroke-opacity:1;paint-order:stroke fill markers"
     x="24.752045"
     y="24.31181"
     id="text1"
     inkscape:label="number"><tspan
       sodipodi:role="line"
       id="tspan1"
       x="24.752045"
       y="24.31181"
       style="font-style:normal;font-variant:normal;font-weight:bold;font-stretch:normal;font-size:13.3333px;font-family:'Victor Mono';-inkscape-font-specification:'Victor Mono Bold';text-align:end;text-anchor:end;stroke:#ffffff;stroke-width:0.3;stroke-linejoin:round;stroke-dasharray:none;stroke-opacity:1">3</tspan></text></svg>
